<?xml version="1.0" encoding="UTF-8" standalone="no"?>
<!DOCTYPE svg PUBLIC "-//W3C//DTD SVG 1.1//EN"
 "http://www.w3.org/Graphics/SVG/1.1/DTD/svg11.dtd">
<!-- Generated by graphviz version 2.47.3 (20210619.1520)
 -->
<!-- Title: dependencies Pages: 1 -->
<svg width="526pt" height="174pt"
 viewBox="0.00 0.00 526.00 173.80" xmlns="http://www.w3.org/2000/svg" xmlns:xlink="http://www.w3.org/1999/xlink">
<g id="graph0" class="graph" transform="scale(1 1) rotate(0) translate(4 169.8)">
<title>dependencies</title>
<polygon fill="white" stroke="transparent" points="-4,4 -4,-169.8 522,-169.8 522,4 -4,4"/>
<text text-anchor="middle" x="259" y="-8.2" font-family="sans-serif" font-size="14.00">dependencies</text>
<g id="clust1" class="cluster">
<title>cluster_EmailConfirmationsModule</title>
<polygon fill="none" stroke="black" stroke-dasharray="1,5" points="8,-32.8 8,-157.8 510,-157.8 510,-32.8 8,-32.8"/>
</g>
<g id="clust3" class="cluster">
<title>cluster_EmailConfirmationsModule_imports</title>
<polygon fill="none" stroke="black" points="278,-40.8 278,-92.8 502,-92.8 502,-40.8 278,-40.8"/>
</g>
<g id="clust6" class="cluster">
<title>cluster_EmailConfirmationsModule_providers</title>
<polygon fill="none" stroke="black" points="16,-40.8 16,-92.8 270,-92.8 270,-40.8 16,-40.8"/>
</g>
<!-- EmailsModule -->
<g id="node1" class="node">
<title>EmailsModule</title>
<polygon fill="#8dd3c7" stroke="black" points="494.43,-84.8 491.43,-88.8 470.43,-88.8 467.43,-84.8 395.57,-84.8 395.57,-48.8 494.43,-48.8 494.43,-84.8"/>
<text text-anchor="middle" x="445" y="-62.6" font-family="Times,serif" font-size="14.00">EmailsModule</text>
</g>
<!-- EmailConfirmationsModule -->
<g id="node3" class="node">
<title>EmailConfirmationsModule</title>
<polygon fill="#8dd3c7" stroke="black" points="418.87,-149.8 415.87,-153.8 394.87,-153.8 391.87,-149.8 245.13,-149.8 245.13,-113.8 418.87,-113.8 418.87,-149.8"/>
<text text-anchor="middle" x="332" y="-127.6" font-family="Times,serif" font-size="14.00">EmailConfirmationsModule</text>
</g>
<!-- EmailsModule&#45;&gt;EmailConfirmationsModule -->
<g id="edge1" class="edge">
<title>EmailsModule&#45;&gt;EmailConfirmationsModule</title>
<path fill="none" stroke="black" d="M407.36,-84.91C407.36,-84.91 407.36,-103.79 407.36,-103.79"/>
<polygon fill="black" stroke="black" points="403.86,-103.79 407.36,-113.79 410.86,-103.79 403.86,-103.79"/>
</g>
<!-- UsersModule -->
<g id="node2" class="node">
<title>UsersModule</title>
<polygon fill="#8dd3c7" stroke="black" points="377.92,-84.8 374.92,-88.8 353.92,-88.8 350.92,-84.8 286.08,-84.8 286.08,-48.8 377.92,-48.8 377.92,-84.8"/>
<text text-anchor="middle" x="332" y="-62.6" font-family="Times,serif" font-size="14.00">UsersModule</text>
</g>
<!-- UsersModule&#45;&gt;EmailConfirmationsModule -->
<g id="edge2" class="edge">
<title>UsersModule&#45;&gt;EmailConfirmationsModule</title>
<path fill="none" stroke="black" d="M332,-84.91C332,-84.91 332,-103.79 332,-103.79"/>
<polygon fill="black" stroke="black" points="328.5,-103.79 332,-113.79 335.5,-103.79 328.5,-103.79"/>
</g>
<!-- EmailConfirmationsService -->
<g id="node4" class="node">
<title>EmailConfirmationsService</title>
<ellipse fill="#fdb462" stroke="black" cx="143" cy="-66.8" rx="118.69" ry="18"/>
<text text-anchor="middle" x="143" y="-62.6" font-family="Times,serif" font-size="14.00">EmailConfirmationsService</text>
</g>
<!-- EmailConfirmationsService&#45;&gt;EmailConfirmationsModule -->
<g id="edge3" class="edge">
<title>EmailConfirmationsService&#45;&gt;EmailConfirmationsModule</title>
<path fill="none" stroke="black" d="M253.46,-73.76C253.46,-73.76 253.46,-103.61 253.46,-103.61"/>
<polygon fill="black" stroke="black" points="249.96,-103.61 253.46,-113.61 256.96,-103.61 249.96,-103.61"/>
</g>
</g>
</svg>
