<?xml version="1.0" encoding="UTF-8" standalone="no"?>
<!DOCTYPE svg PUBLIC "-//W3C//DTD SVG 1.1//EN"
 "http://www.w3.org/Graphics/SVG/1.1/DTD/svg11.dtd">
<!-- Generated by graphviz version 2.47.3 (20210619.1520)
 -->
<!-- Title: dependencies Pages: 1 -->
<svg width="686pt" height="174pt"
 viewBox="0.00 0.00 686.00 173.80" xmlns="http://www.w3.org/2000/svg" xmlns:xlink="http://www.w3.org/1999/xlink">
<g id="graph0" class="graph" transform="scale(1 1) rotate(0) translate(4 169.8)">
<title>dependencies</title>
<polygon fill="white" stroke="transparent" points="-4,4 -4,-169.8 682,-169.8 682,4 -4,4"/>
<text text-anchor="middle" x="339" y="-8.2" font-family="sans-serif" font-size="14.00">dependencies</text>
<g id="clust1" class="cluster">
<title>cluster_AuthModule</title>
<polygon fill="none" stroke="black" stroke-dasharray="1,5" points="8,-32.8 8,-157.8 670,-157.8 670,-32.8 8,-32.8"/>
</g>
<g id="clust3" class="cluster">
<title>cluster_AuthModule_imports</title>
<polygon fill="none" stroke="black" points="438,-40.8 438,-92.8 662,-92.8 662,-40.8 438,-40.8"/>
</g>
<g id="clust6" class="cluster">
<title>cluster_AuthModule_providers</title>
<polygon fill="none" stroke="black" points="16,-40.8 16,-92.8 430,-92.8 430,-40.8 16,-40.8"/>
</g>
<!-- EmailsModule -->
<g id="node1" class="node">
<title>EmailsModule</title>
<polygon fill="#8dd3c7" stroke="black" points="654.43,-84.8 651.43,-88.8 630.43,-88.8 627.43,-84.8 555.57,-84.8 555.57,-48.8 654.43,-48.8 654.43,-84.8"/>
<text text-anchor="middle" x="605" y="-62.6" font-family="Times,serif" font-size="14.00">EmailsModule</text>
</g>
<!-- AuthModule -->
<g id="node3" class="node">
<title>AuthModule</title>
<polygon fill="#8dd3c7" stroke="black" points="406.55,-149.8 403.55,-153.8 382.55,-153.8 379.55,-149.8 319.45,-149.8 319.45,-113.8 406.55,-113.8 406.55,-149.8"/>
<text text-anchor="middle" x="363" y="-127.6" font-family="Times,serif" font-size="14.00">AuthModule</text>
</g>
<!-- EmailsModule&#45;&gt;AuthModule -->
<g id="edge1" class="edge">
<title>EmailsModule&#45;&gt;AuthModule</title>
<path fill="none" stroke="black" d="M605,-85.08C605,-106.12 605,-137.8 605,-137.8 605,-137.8 416.82,-137.8 416.82,-137.8"/>
<polygon fill="black" stroke="black" points="416.82,-134.3 406.82,-137.8 416.82,-141.3 416.82,-134.3"/>
</g>
<!-- UsersModule -->
<g id="node2" class="node">
<title>UsersModule</title>
<polygon fill="#8dd3c7" stroke="black" points="537.92,-84.8 534.92,-88.8 513.92,-88.8 510.92,-84.8 446.08,-84.8 446.08,-48.8 537.92,-48.8 537.92,-84.8"/>
<text text-anchor="middle" x="492" y="-62.6" font-family="Times,serif" font-size="14.00">UsersModule</text>
</g>
<!-- UsersModule&#45;&gt;AuthModule -->
<g id="edge2" class="edge">
<title>UsersModule&#45;&gt;AuthModule</title>
<path fill="none" stroke="black" d="M492,-84.82C492,-102.17 492,-125.8 492,-125.8 492,-125.8 416.67,-125.8 416.67,-125.8"/>
<polygon fill="black" stroke="black" points="416.67,-122.3 406.67,-125.8 416.67,-129.3 416.67,-122.3"/>
</g>
<!-- AuthService -->
<g id="node4" class="node">
<title>AuthService</title>
<ellipse fill="#fdb462" stroke="black" cx="363" cy="-66.8" rx="59.11" ry="18"/>
<text text-anchor="middle" x="363" y="-62.6" font-family="Times,serif" font-size="14.00">AuthService</text>
</g>
<!-- AuthService&#45;&gt;AuthModule -->
<g id="edge3" class="edge">
<title>AuthService&#45;&gt;AuthModule</title>
<path fill="none" stroke="black" d="M363,-84.91C363,-84.91 363,-103.79 363,-103.79"/>
<polygon fill="black" stroke="black" points="359.5,-103.79 363,-113.79 366.5,-103.79 359.5,-103.79"/>
</g>
<!-- JwtStrategy -->
<g id="node5" class="node">
<title>JwtStrategy</title>
<ellipse fill="#fdb462" stroke="black" cx="229" cy="-66.8" rx="56.76" ry="18"/>
<text text-anchor="middle" x="229" y="-62.6" font-family="Times,serif" font-size="14.00">JwtStrategy</text>
</g>
<!-- JwtStrategy&#45;&gt;AuthModule -->
<g id="edge4" class="edge">
<title>JwtStrategy&#45;&gt;AuthModule</title>
<path fill="none" stroke="black" d="M229,-84.82C229,-102.17 229,-125.8 229,-125.8 229,-125.8 309.12,-125.8 309.12,-125.8"/>
<polygon fill="black" stroke="black" points="309.12,-129.3 319.12,-125.8 309.12,-122.3 309.12,-129.3"/>
</g>
<!-- LocalStrategy -->
<g id="node6" class="node">
<title>LocalStrategy</title>
<ellipse fill="#fdb462" stroke="black" cx="89" cy="-66.8" rx="65.41" ry="18"/>
<text text-anchor="middle" x="89" y="-62.6" font-family="Times,serif" font-size="14.00">LocalStrategy</text>
</g>
<!-- LocalStrategy&#45;&gt;AuthModule -->
<g id="edge5" class="edge">
<title>LocalStrategy&#45;&gt;AuthModule</title>
<path fill="none" stroke="black" d="M89,-85.08C89,-106.12 89,-137.8 89,-137.8 89,-137.8 309.28,-137.8 309.28,-137.8"/>
<polygon fill="black" stroke="black" points="309.28,-141.3 319.28,-137.8 309.28,-134.3 309.28,-141.3"/>
</g>
</g>
</svg>
