<?xml version="1.0" encoding="UTF-8" standalone="no"?>
<!DOCTYPE svg PUBLIC "-//W3C//DTD SVG 1.1//EN"
 "http://www.w3.org/Graphics/SVG/1.1/DTD/svg11.dtd">
<!-- Generated by graphviz version 2.47.3 (20210619.1520)
 -->
<!-- Title: dependencies Pages: 1 -->
<svg width="1187pt" height="174pt"
 viewBox="0.00 0.00 1187.00 173.80" xmlns="http://www.w3.org/2000/svg" xmlns:xlink="http://www.w3.org/1999/xlink">
<g id="graph0" class="graph" transform="scale(1 1) rotate(0) translate(4 169.8)">
<title>dependencies</title>
<polygon fill="white" stroke="transparent" points="-4,4 -4,-169.8 1183,-169.8 1183,4 -4,4"/>
<text text-anchor="middle" x="589.5" y="-8.2" font-family="sans-serif" font-size="14.00">dependencies</text>
<g id="clust1" class="cluster">
<title>cluster_AppModule</title>
<polygon fill="none" stroke="black" stroke-dasharray="1,5" points="8,-32.8 8,-157.8 1171,-157.8 1171,-32.8 8,-32.8"/>
</g>
<g id="clust6" class="cluster">
<title>cluster_AppModule_providers</title>
<polygon fill="none" stroke="black" points="1033,-40.8 1033,-92.8 1163,-92.8 1163,-40.8 1033,-40.8"/>
</g>
<g id="clust3" class="cluster">
<title>cluster_AppModule_imports</title>
<polygon fill="none" stroke="black" points="16,-40.8 16,-92.8 1025,-92.8 1025,-40.8 16,-40.8"/>
</g>
<!-- AuthModule -->
<g id="node1" class="node">
<title>AuthModule</title>
<polygon fill="#8dd3c7" stroke="black" points="1016.55,-84.8 1013.55,-88.8 992.55,-88.8 989.55,-84.8 929.45,-84.8 929.45,-48.8 1016.55,-48.8 1016.55,-84.8"/>
<text text-anchor="middle" x="973" y="-62.6" font-family="Times,serif" font-size="14.00">AuthModule</text>
</g>
<!-- AppModule -->
<g id="node9" class="node">
<title>AppModule</title>
<polygon fill="#8dd3c7" stroke="black" points="600.66,-149.8 597.66,-153.8 576.66,-153.8 573.66,-149.8 517.34,-149.8 517.34,-113.8 600.66,-113.8 600.66,-149.8"/>
<text text-anchor="middle" x="559" y="-127.6" font-family="Times,serif" font-size="14.00">AppModule</text>
</g>
<!-- AuthModule&#45;&gt;AppModule -->
<g id="edge1" class="edge">
<title>AuthModule&#45;&gt;AppModule</title>
<path fill="none" stroke="black" d="M973,-84.93C973,-105.37 973,-135.8 973,-135.8 973,-135.8 610.97,-135.8 610.97,-135.8"/>
<polygon fill="black" stroke="black" points="610.97,-132.3 600.97,-135.8 610.97,-139.3 610.97,-132.3"/>
</g>
<!-- CategoriesModule -->
<g id="node2" class="node">
<title>CategoriesModule</title>
<polygon fill="#8dd3c7" stroke="black" points="911.92,-84.8 908.92,-88.8 887.92,-88.8 884.92,-84.8 792.08,-84.8 792.08,-48.8 911.92,-48.8 911.92,-84.8"/>
<text text-anchor="middle" x="852" y="-62.6" font-family="Times,serif" font-size="14.00">CategoriesModule</text>
</g>
<!-- CategoriesModule&#45;&gt;AppModule -->
<g id="edge2" class="edge">
<title>CategoriesModule&#45;&gt;AppModule</title>
<path fill="none" stroke="black" d="M852,-85.07C852,-103.36 852,-128.8 852,-128.8 852,-128.8 610.67,-128.8 610.67,-128.8"/>
<polygon fill="black" stroke="black" points="610.67,-125.3 600.67,-128.8 610.67,-132.3 610.67,-125.3"/>
</g>
<!-- DatabaseModule -->
<g id="node3" class="node">
<title>DatabaseModule</title>
<polygon fill="#8dd3c7" stroke="black" points="774.35,-84.8 771.35,-88.8 750.35,-88.8 747.35,-84.8 663.65,-84.8 663.65,-48.8 774.35,-48.8 774.35,-84.8"/>
<text text-anchor="middle" x="719" y="-62.6" font-family="Times,serif" font-size="14.00">DatabaseModule</text>
</g>
<!-- DatabaseModule&#45;&gt;AppModule -->
<g id="edge3" class="edge">
<title>DatabaseModule&#45;&gt;AppModule</title>
<path fill="none" stroke="black" d="M719,-84.81C719,-100.85 719,-121.8 719,-121.8 719,-121.8 611.04,-121.8 611.04,-121.8"/>
<polygon fill="black" stroke="black" points="611.04,-118.3 601.04,-121.8 611.04,-125.3 611.04,-118.3"/>
</g>
<!-- EmailConfirmationsModule -->
<g id="node4" class="node">
<title>EmailConfirmationsModule</title>
<polygon fill="#8dd3c7" stroke="black" points="645.87,-84.8 642.87,-88.8 621.87,-88.8 618.87,-84.8 472.13,-84.8 472.13,-48.8 645.87,-48.8 645.87,-84.8"/>
<text text-anchor="middle" x="559" y="-62.6" font-family="Times,serif" font-size="14.00">EmailConfirmationsModule</text>
</g>
<!-- EmailConfirmationsModule&#45;&gt;AppModule -->
<g id="edge4" class="edge">
<title>EmailConfirmationsModule&#45;&gt;AppModule</title>
<path fill="none" stroke="black" d="M559,-84.91C559,-84.91 559,-103.79 559,-103.79"/>
<polygon fill="black" stroke="black" points="555.5,-103.79 559,-113.79 562.5,-103.79 555.5,-103.79"/>
</g>
<!-- EmailsModule -->
<g id="node5" class="node">
<title>EmailsModule</title>
<polygon fill="#8dd3c7" stroke="black" points="454.43,-84.8 451.43,-88.8 430.43,-88.8 427.43,-84.8 355.57,-84.8 355.57,-48.8 454.43,-48.8 454.43,-84.8"/>
<text text-anchor="middle" x="405" y="-62.6" font-family="Times,serif" font-size="14.00">EmailsModule</text>
</g>
<!-- EmailsModule&#45;&gt;AppModule -->
<g id="edge5" class="edge">
<title>EmailsModule&#45;&gt;AppModule</title>
<path fill="none" stroke="black" d="M405,-84.81C405,-100.85 405,-121.8 405,-121.8 405,-121.8 507.33,-121.8 507.33,-121.8"/>
<polygon fill="black" stroke="black" points="507.33,-125.3 517.33,-121.8 507.33,-118.3 507.33,-125.3"/>
</g>
<!-- HealthModule -->
<g id="node6" class="node">
<title>HealthModule</title>
<polygon fill="#8dd3c7" stroke="black" points="337.37,-84.8 334.37,-88.8 313.37,-88.8 310.37,-84.8 240.63,-84.8 240.63,-48.8 337.37,-48.8 337.37,-84.8"/>
<text text-anchor="middle" x="289" y="-62.6" font-family="Times,serif" font-size="14.00">HealthModule</text>
</g>
<!-- HealthModule&#45;&gt;AppModule -->
<g id="edge6" class="edge">
<title>HealthModule&#45;&gt;AppModule</title>
<path fill="none" stroke="black" d="M289,-85.07C289,-103.36 289,-128.8 289,-128.8 289,-128.8 507.11,-128.8 507.11,-128.8"/>
<polygon fill="black" stroke="black" points="507.11,-132.3 517.11,-128.8 507.11,-125.3 507.11,-132.3"/>
</g>
<!-- PostsModule -->
<g id="node7" class="node">
<title>PostsModule</title>
<polygon fill="#8dd3c7" stroke="black" points="222.61,-84.8 219.61,-88.8 198.61,-88.8 195.61,-84.8 133.39,-84.8 133.39,-48.8 222.61,-48.8 222.61,-84.8"/>
<text text-anchor="middle" x="178" y="-62.6" font-family="Times,serif" font-size="14.00">PostsModule</text>
</g>
<!-- PostsModule&#45;&gt;AppModule -->
<g id="edge7" class="edge">
<title>PostsModule&#45;&gt;AppModule</title>
<path fill="none" stroke="black" d="M178,-84.93C178,-105.37 178,-135.8 178,-135.8 178,-135.8 507.14,-135.8 507.14,-135.8"/>
<polygon fill="black" stroke="black" points="507.14,-139.3 517.14,-135.8 507.14,-132.3 507.14,-139.3"/>
</g>
<!-- UsersModule -->
<g id="node8" class="node">
<title>UsersModule</title>
<polygon fill="#8dd3c7" stroke="black" points="115.92,-84.8 112.92,-88.8 91.92,-88.8 88.92,-84.8 24.08,-84.8 24.08,-48.8 115.92,-48.8 115.92,-84.8"/>
<text text-anchor="middle" x="70" y="-62.6" font-family="Times,serif" font-size="14.00">UsersModule</text>
</g>
<!-- UsersModule&#45;&gt;AppModule -->
<g id="edge8" class="edge">
<title>UsersModule&#45;&gt;AppModule</title>
<path fill="none" stroke="black" d="M70,-84.81C70,-107.29 70,-142.8 70,-142.8 70,-142.8 507.31,-142.8 507.31,-142.8"/>
<polygon fill="black" stroke="black" points="507.31,-146.3 517.31,-142.8 507.31,-139.3 507.31,-146.3"/>
</g>
<!-- AppService -->
<g id="node10" class="node">
<title>AppService</title>
<ellipse fill="#fdb462" stroke="black" cx="1098" cy="-66.8" rx="56.74" ry="18"/>
<text text-anchor="middle" x="1098" y="-62.6" font-family="Times,serif" font-size="14.00">AppService</text>
</g>
<!-- AppService&#45;&gt;AppModule -->
<g id="edge9" class="edge">
<title>AppService&#45;&gt;AppModule</title>
<path fill="none" stroke="black" d="M1098,-84.81C1098,-107.29 1098,-142.8 1098,-142.8 1098,-142.8 610.85,-142.8 610.85,-142.8"/>
<polygon fill="black" stroke="black" points="610.85,-139.3 600.85,-142.8 610.85,-146.3 610.85,-139.3"/>
</g>
</g>
</svg>
