<?xml version="1.0" encoding="UTF-8" standalone="no"?>
<!DOCTYPE svg PUBLIC "-//W3C//DTD SVG 1.1//EN"
 "http://www.w3.org/Graphics/SVG/1.1/DTD/svg11.dtd">
<!-- Generated by graphviz version 2.47.3 (20210619.1520)
 -->
<!-- Title: dependencies Pages: 1 -->
<svg width="2186pt" height="326pt"
 viewBox="0.00 0.00 2186.00 325.80" xmlns="http://www.w3.org/2000/svg" xmlns:xlink="http://www.w3.org/1999/xlink">
<g id="graph0" class="graph" transform="scale(1 1) rotate(0) translate(4 321.8)">
<title>dependencies</title>
<polygon fill="white" stroke="transparent" points="-4,4 -4,-321.8 2182,-321.8 2182,4 -4,4"/>
<text text-anchor="middle" x="1089" y="-8.2" font-family="sans-serif" font-size="14.00">dependencies</text>
<g id="clust1" class="cluster">
<title>cluster_AppModule</title>
<polygon fill="none" stroke="black" stroke-dasharray="1,5" points="724,-108.8 724,-309.8 1590,-309.8 1590,-108.8 724,-108.8"/>
</g>
<g id="clust3" class="cluster">
<title>cluster_AppModule_imports</title>
<polygon fill="none" stroke="black" points="870,-116.8 870,-244.8 1582,-244.8 1582,-116.8 870,-116.8"/>
</g>
<g id="clust6" class="cluster">
<title>cluster_AppModule_providers</title>
<polygon fill="none" stroke="black" points="732,-192.8 732,-244.8 862,-244.8 862,-192.8 732,-192.8"/>
</g>
<g id="clust7" class="cluster">
<title>cluster_AuthModule</title>
<polygon fill="none" stroke="black" stroke-dasharray="1,5" points="8,-108.8 8,-176.8 438,-176.8 438,-108.8 8,-108.8"/>
</g>
<g id="clust12" class="cluster">
<title>cluster_AuthModule_providers</title>
<polygon fill="none" stroke="black" points="16,-116.8 16,-168.8 430,-168.8 430,-116.8 16,-116.8"/>
</g>
<g id="clust13" class="cluster">
<title>cluster_CategoriesModule</title>
<polygon fill="none" stroke="black" stroke-dasharray="1,5" points="957,-32.8 957,-100.8 1151,-100.8 1151,-32.8 957,-32.8"/>
</g>
<g id="clust18" class="cluster">
<title>cluster_CategoriesModule_providers</title>
<polygon fill="none" stroke="black" points="965,-40.8 965,-92.8 1143,-92.8 1143,-40.8 965,-40.8"/>
</g>
<g id="clust25" class="cluster">
<title>cluster_EmailConfirmationsModule</title>
<polygon fill="none" stroke="black" stroke-dasharray="1,5" points="446,-108.8 446,-176.8 716,-176.8 716,-108.8 446,-108.8"/>
</g>
<g id="clust30" class="cluster">
<title>cluster_EmailConfirmationsModule_providers</title>
<polygon fill="none" stroke="black" points="454,-116.8 454,-168.8 708,-168.8 708,-116.8 454,-116.8"/>
</g>
<g id="clust31" class="cluster">
<title>cluster_EmailsModule</title>
<polygon fill="none" stroke="black" stroke-dasharray="1,5" points="1598,-184.8 1598,-252.8 1888,-252.8 1888,-184.8 1598,-184.8"/>
</g>
<g id="clust34" class="cluster">
<title>cluster_EmailsModule_exports</title>
<polygon fill="none" stroke="black" points="1764,-192.8 1764,-244.8 1880,-244.8 1880,-192.8 1764,-192.8"/>
</g>
<g id="clust36" class="cluster">
<title>cluster_EmailsModule_providers</title>
<polygon fill="none" stroke="black" points="1606,-192.8 1606,-244.8 1756,-244.8 1756,-192.8 1606,-192.8"/>
</g>
<g id="clust37" class="cluster">
<title>cluster_HealthModule</title>
<polygon fill="none" stroke="black" stroke-dasharray="1,5" points="1308,-32.8 1308,-100.8 1472,-100.8 1472,-32.8 1308,-32.8"/>
</g>
<g id="clust42" class="cluster">
<title>cluster_HealthModule_providers</title>
<polygon fill="none" stroke="black" points="1316,-40.8 1316,-92.8 1464,-92.8 1464,-40.8 1316,-40.8"/>
</g>
<g id="clust43" class="cluster">
<title>cluster_PostsModule</title>
<polygon fill="none" stroke="black" stroke-dasharray="1,5" points="1480,-32.8 1480,-100.8 1632,-100.8 1632,-32.8 1480,-32.8"/>
</g>
<g id="clust48" class="cluster">
<title>cluster_PostsModule_providers</title>
<polygon fill="none" stroke="black" points="1488,-40.8 1488,-92.8 1624,-92.8 1624,-40.8 1488,-40.8"/>
</g>
<g id="clust49" class="cluster">
<title>cluster_UsersModule</title>
<polygon fill="none" stroke="black" stroke-dasharray="1,5" points="1896,-184.8 1896,-252.8 2170,-252.8 2170,-184.8 1896,-184.8"/>
</g>
<g id="clust52" class="cluster">
<title>cluster_UsersModule_exports</title>
<polygon fill="none" stroke="black" points="2052,-192.8 2052,-244.8 2162,-244.8 2162,-192.8 2052,-192.8"/>
</g>
<g id="clust54" class="cluster">
<title>cluster_UsersModule_providers</title>
<polygon fill="none" stroke="black" points="1904,-192.8 1904,-244.8 2044,-244.8 2044,-192.8 1904,-192.8"/>
</g>
<!-- AuthModule -->
<g id="node1" class="node">
<title>AuthModule</title>
<polygon fill="#8dd3c7" stroke="black" points="965.55,-236.8 962.55,-240.8 941.55,-240.8 938.55,-236.8 878.45,-236.8 878.45,-200.8 965.55,-200.8 965.55,-236.8"/>
<text text-anchor="middle" x="922" y="-214.6" font-family="Times,serif" font-size="14.00">AuthModule</text>
</g>
<!-- AppModule -->
<g id="node9" class="node">
<title>AppModule</title>
<polygon fill="#8dd3c7" stroke="black" points="1238.66,-301.8 1235.66,-305.8 1214.66,-305.8 1211.66,-301.8 1155.34,-301.8 1155.34,-265.8 1238.66,-265.8 1238.66,-301.8"/>
<text text-anchor="middle" x="1197" y="-279.6" font-family="Times,serif" font-size="14.00">AppModule</text>
</g>
<!-- AuthModule&#45;&gt;AppModule -->
<g id="edge1" class="edge">
<title>AuthModule&#45;&gt;AppModule</title>
<path fill="none" stroke="black" d="M922,-236.91C922,-256.14 922,-283.8 922,-283.8 922,-283.8 1145.23,-283.8 1145.23,-283.8"/>
<polygon fill="black" stroke="black" points="1145.23,-287.3 1155.23,-283.8 1145.23,-280.3 1145.23,-287.3"/>
</g>
<!-- CategoriesModule -->
<g id="node2" class="node">
<title>CategoriesModule</title>
<polygon fill="#8dd3c7" stroke="black" points="1113.92,-160.8 1110.92,-164.8 1089.92,-164.8 1086.92,-160.8 994.08,-160.8 994.08,-124.8 1113.92,-124.8 1113.92,-160.8"/>
<text text-anchor="middle" x="1054" y="-138.6" font-family="Times,serif" font-size="14.00">CategoriesModule</text>
</g>
<!-- CategoriesModule&#45;&gt;AppModule -->
<g id="edge2" class="edge">
<title>CategoriesModule&#45;&gt;AppModule</title>
<path fill="none" stroke="black" d="M1054,-160.81C1054,-176.85 1054,-197.8 1054,-197.8 1054,-197.8 1198.38,-197.8 1198.38,-197.8 1198.38,-197.8 1198.38,-255.56 1198.38,-255.56"/>
<polygon fill="black" stroke="black" points="1194.88,-255.56 1198.38,-265.56 1201.88,-255.56 1194.88,-255.56"/>
</g>
<!-- DatabaseModule -->
<g id="node3" class="node">
<title>DatabaseModule</title>
<polygon fill="#8dd3c7" stroke="black" points="1242.35,-160.8 1239.35,-164.8 1218.35,-164.8 1215.35,-160.8 1131.65,-160.8 1131.65,-124.8 1242.35,-124.8 1242.35,-160.8"/>
<text text-anchor="middle" x="1187" y="-138.6" font-family="Times,serif" font-size="14.00">DatabaseModule</text>
</g>
<!-- DatabaseModule&#45;&gt;AppModule -->
<g id="edge3" class="edge">
<title>DatabaseModule&#45;&gt;AppModule</title>
<path fill="none" stroke="black" d="M1218.6,-160.94C1218.6,-160.94 1218.6,-255.73 1218.6,-255.73"/>
<polygon fill="black" stroke="black" points="1215.1,-255.72 1218.6,-265.73 1222.1,-255.73 1215.1,-255.72"/>
</g>
<!-- EmailConfirmationsModule -->
<g id="node4" class="node">
<title>EmailConfirmationsModule</title>
<polygon fill="#8dd3c7" stroke="black" points="1157.87,-236.8 1154.87,-240.8 1133.87,-240.8 1130.87,-236.8 984.13,-236.8 984.13,-200.8 1157.87,-200.8 1157.87,-236.8"/>
<text text-anchor="middle" x="1071" y="-214.6" font-family="Times,serif" font-size="14.00">EmailConfirmationsModule</text>
</g>
<!-- EmailConfirmationsModule&#45;&gt;AppModule -->
<g id="edge4" class="edge">
<title>EmailConfirmationsModule&#45;&gt;AppModule</title>
<path fill="none" stroke="black" d="M1158,-224.8C1169.92,-224.8 1178.16,-224.8 1178.16,-224.8 1178.16,-224.8 1178.16,-255.78 1178.16,-255.78"/>
<polygon fill="black" stroke="black" points="1174.66,-255.78 1178.16,-265.78 1181.66,-255.78 1174.66,-255.78"/>
</g>
<!-- EmailsModule -->
<g id="node5" class="node">
<title>EmailsModule</title>
<polygon fill="#8dd3c7" stroke="black" points="976.43,-160.8 973.43,-164.8 952.43,-164.8 949.43,-160.8 877.57,-160.8 877.57,-124.8 976.43,-124.8 976.43,-160.8"/>
<text text-anchor="middle" x="927" y="-138.6" font-family="Times,serif" font-size="14.00">EmailsModule</text>
</g>
<!-- EmailsModule&#45;&gt;AuthModule -->
<g id="edge10" class="edge">
<title>EmailsModule&#45;&gt;AuthModule</title>
<path fill="none" stroke="black" d="M922,-160.81C922,-160.81 922,-190.65 922,-190.65"/>
<polygon fill="black" stroke="black" points="918.5,-190.65 922,-200.65 925.5,-190.65 918.5,-190.65"/>
</g>
<!-- EmailsModule&#45;&gt;EmailConfirmationsModule -->
<g id="edge16" class="edge">
<title>EmailsModule&#45;&gt;EmailConfirmationsModule</title>
<path fill="none" stroke="black" d="M972.74,-160.81C972.74,-183.29 972.74,-218.8 972.74,-218.8 972.74,-218.8 974.01,-218.8 974.01,-218.8"/>
<polygon fill="black" stroke="black" points="974.01,-222.3 984.01,-218.8 974.01,-215.3 974.01,-222.3"/>
</g>
<!-- EmailsModule&#45;&gt;AppModule -->
<g id="edge5" class="edge">
<title>EmailsModule&#45;&gt;AppModule</title>
<path fill="none" stroke="black" d="M969.25,-160.88C969.25,-197.03 969.25,-274.8 969.25,-274.8 969.25,-274.8 1145.23,-274.8 1145.23,-274.8"/>
<polygon fill="black" stroke="black" points="1145.23,-278.3 1155.23,-274.8 1145.23,-271.3 1145.23,-278.3"/>
</g>
<!-- EmailsService  -->
<g id="node16" class="node">
<title>EmailsService </title>
<polygon fill="#fb8072" stroke="black" points="1872.36,-236.8 1771.64,-236.8 1771.64,-200.8 1872.36,-200.8 1872.36,-236.8"/>
<text text-anchor="middle" x="1822" y="-214.6" font-family="Times,serif" font-size="14.00">EmailsService </text>
</g>
<!-- EmailsModule&#45;&gt;EmailsService  -->
<g id="edge19" class="edge">
<title>EmailsModule&#45;&gt;EmailsService </title>
<path fill="none" stroke="black" stroke-dasharray="5,2" d="M932.94,-160.84C932.94,-168.55 932.94,-175.8 932.94,-175.8 932.94,-175.8 1822,-175.8 1822,-175.8 1822,-175.8 1822,-190.31 1822,-190.31"/>
<polygon fill="black" stroke="black" points="1818.5,-190.31 1822,-200.31 1825.5,-190.31 1818.5,-190.31"/>
</g>
<!-- HealthModule -->
<g id="node6" class="node">
<title>HealthModule</title>
<polygon fill="#8dd3c7" stroke="black" points="1466.37,-160.8 1463.37,-164.8 1442.37,-164.8 1439.37,-160.8 1369.63,-160.8 1369.63,-124.8 1466.37,-124.8 1466.37,-160.8"/>
<text text-anchor="middle" x="1418" y="-138.6" font-family="Times,serif" font-size="14.00">HealthModule</text>
</g>
<!-- HealthModule&#45;&gt;AppModule -->
<g id="edge6" class="edge">
<title>HealthModule&#45;&gt;AppModule</title>
<path fill="none" stroke="black" d="M1418,-160.94C1418,-199.03 1418,-283.8 1418,-283.8 1418,-283.8 1248.83,-283.8 1248.83,-283.8"/>
<polygon fill="black" stroke="black" points="1248.83,-280.3 1238.83,-283.8 1248.83,-287.3 1248.83,-280.3"/>
</g>
<!-- PostsModule -->
<g id="node7" class="node">
<title>PostsModule</title>
<polygon fill="#8dd3c7" stroke="black" points="1573.61,-160.8 1570.61,-164.8 1549.61,-164.8 1546.61,-160.8 1484.39,-160.8 1484.39,-124.8 1573.61,-124.8 1573.61,-160.8"/>
<text text-anchor="middle" x="1529" y="-138.6" font-family="Times,serif" font-size="14.00">PostsModule</text>
</g>
<!-- PostsModule&#45;&gt;AppModule -->
<g id="edge7" class="edge">
<title>PostsModule&#45;&gt;AppModule</title>
<path fill="none" stroke="black" d="M1529,-160.89C1529,-200.79 1529,-292.8 1529,-292.8 1529,-292.8 1248.71,-292.8 1248.71,-292.8"/>
<polygon fill="black" stroke="black" points="1248.71,-289.3 1238.71,-292.8 1248.71,-296.3 1248.71,-289.3"/>
</g>
<!-- UsersModule -->
<g id="node8" class="node">
<title>UsersModule</title>
<polygon fill="#8dd3c7" stroke="black" points="1351.92,-160.8 1348.92,-164.8 1327.92,-164.8 1324.92,-160.8 1260.08,-160.8 1260.08,-124.8 1351.92,-124.8 1351.92,-160.8"/>
<text text-anchor="middle" x="1306" y="-138.6" font-family="Times,serif" font-size="14.00">UsersModule</text>
</g>
<!-- UsersModule&#45;&gt;AuthModule -->
<g id="edge11" class="edge">
<title>UsersModule&#45;&gt;AuthModule</title>
<path fill="none" stroke="black" d="M1275.53,-161C1275.53,-166.83 1275.53,-171.8 1275.53,-171.8 1275.53,-171.8 943.89,-171.8 943.89,-171.8 943.89,-171.8 943.89,-190.76 943.89,-190.76"/>
<polygon fill="black" stroke="black" points="940.39,-190.76 943.89,-200.76 947.39,-190.76 940.39,-190.76"/>
</g>
<!-- UsersModule&#45;&gt;EmailConfirmationsModule -->
<g id="edge17" class="edge">
<title>UsersModule&#45;&gt;EmailConfirmationsModule</title>
<path fill="none" stroke="black" d="M1321.24,-160.83C1321.24,-181.57 1321.24,-212.8 1321.24,-212.8 1321.24,-212.8 1168.17,-212.8 1168.17,-212.8"/>
<polygon fill="black" stroke="black" points="1168.17,-209.3 1158.17,-212.8 1168.17,-216.3 1168.17,-209.3"/>
</g>
<!-- UsersModule&#45;&gt;AppModule -->
<g id="edge8" class="edge">
<title>UsersModule&#45;&gt;AppModule</title>
<path fill="none" stroke="black" d="M1336.47,-160.88C1336.47,-197.03 1336.47,-274.8 1336.47,-274.8 1336.47,-274.8 1248.85,-274.8 1248.85,-274.8"/>
<polygon fill="black" stroke="black" points="1248.85,-271.3 1238.85,-274.8 1248.85,-278.3 1248.85,-271.3"/>
</g>
<!-- UsersService  -->
<g id="node20" class="node">
<title>UsersService </title>
<polygon fill="#fb8072" stroke="black" points="2153.85,-236.8 2060.15,-236.8 2060.15,-200.8 2153.85,-200.8 2153.85,-236.8"/>
<text text-anchor="middle" x="2107" y="-214.6" font-family="Times,serif" font-size="14.00">UsersService </text>
</g>
<!-- UsersModule&#45;&gt;UsersService  -->
<g id="edge23" class="edge">
<title>UsersModule&#45;&gt;UsersService </title>
<path fill="none" stroke="black" stroke-dasharray="5,2" d="M1290.76,-160.97C1290.76,-163.25 1290.76,-164.8 1290.76,-164.8 1290.76,-164.8 2107,-164.8 2107,-164.8 2107,-164.8 2107,-190.52 2107,-190.52"/>
<polygon fill="black" stroke="black" points="2103.5,-190.52 2107,-200.52 2110.5,-190.52 2103.5,-190.52"/>
</g>
<!-- AppService -->
<g id="node10" class="node">
<title>AppService</title>
<ellipse fill="#fdb462" stroke="black" cx="797" cy="-218.8" rx="56.74" ry="18"/>
<text text-anchor="middle" x="797" y="-214.6" font-family="Times,serif" font-size="14.00">AppService</text>
</g>
<!-- AppService&#45;&gt;AppModule -->
<g id="edge9" class="edge">
<title>AppService&#45;&gt;AppModule</title>
<path fill="none" stroke="black" d="M797,-237.09C797,-259.01 797,-292.8 797,-292.8 797,-292.8 1145.32,-292.8 1145.32,-292.8"/>
<polygon fill="black" stroke="black" points="1145.33,-296.3 1155.32,-292.8 1145.32,-289.3 1145.33,-296.3"/>
</g>
<!-- AuthService -->
<g id="node11" class="node">
<title>AuthService</title>
<ellipse fill="#fdb462" stroke="black" cx="363" cy="-142.8" rx="59.11" ry="18"/>
<text text-anchor="middle" x="363" y="-138.6" font-family="Times,serif" font-size="14.00">AuthService</text>
</g>
<!-- AuthService&#45;&gt;AuthModule -->
<g id="edge12" class="edge">
<title>AuthService&#45;&gt;AuthModule</title>
<path fill="none" stroke="black" d="M363,-160.95C363,-173.07 363,-186.8 363,-186.8 363,-186.8 911.06,-186.8 911.06,-186.8 911.06,-186.8 911.06,-190.56 911.06,-190.56"/>
<polygon fill="black" stroke="black" points="907.56,-190.56 911.06,-200.56 914.56,-190.56 907.56,-190.56"/>
</g>
<!-- JwtStrategy -->
<g id="node12" class="node">
<title>JwtStrategy</title>
<ellipse fill="#fdb462" stroke="black" cx="229" cy="-142.8" rx="56.76" ry="18"/>
<text text-anchor="middle" x="229" y="-138.6" font-family="Times,serif" font-size="14.00">JwtStrategy</text>
</g>
<!-- JwtStrategy&#45;&gt;AuthModule -->
<g id="edge13" class="edge">
<title>JwtStrategy&#45;&gt;AuthModule</title>
<path fill="none" stroke="black" d="M229,-160.95C229,-174.54 229,-190.8 229,-190.8 229,-190.8 900.11,-190.8 900.11,-190.8 900.11,-190.8 900.11,-191.78 900.11,-191.78"/>
<polygon fill="black" stroke="black" points="896.61,-190.59 900.11,-200.59 903.61,-190.59 896.61,-190.59"/>
</g>
<!-- LocalStrategy -->
<g id="node13" class="node">
<title>LocalStrategy</title>
<ellipse fill="#fdb462" stroke="black" cx="89" cy="-142.8" rx="65.41" ry="18"/>
<text text-anchor="middle" x="89" y="-138.6" font-family="Times,serif" font-size="14.00">LocalStrategy</text>
</g>
<!-- LocalStrategy&#45;&gt;AuthModule -->
<g id="edge14" class="edge">
<title>LocalStrategy&#45;&gt;AuthModule</title>
<path fill="none" stroke="black" d="M89,-160.92C89,-175.58 89,-193.8 89,-193.8 89,-193.8 889.17,-193.8 889.17,-193.8 889.17,-193.8 889.17,-194.48 889.17,-194.48"/>
<polygon fill="black" stroke="black" points="885.67,-190.63 889.17,-200.63 892.67,-190.63 885.67,-190.63"/>
</g>
<!-- CategoriesService -->
<g id="node14" class="node">
<title>CategoriesService</title>
<ellipse fill="#fdb462" stroke="black" cx="1054" cy="-66.8" rx="81.07" ry="18"/>
<text text-anchor="middle" x="1054" y="-62.6" font-family="Times,serif" font-size="14.00">CategoriesService</text>
</g>
<!-- CategoriesService&#45;&gt;CategoriesModule -->
<g id="edge15" class="edge">
<title>CategoriesService&#45;&gt;CategoriesModule</title>
<path fill="none" stroke="black" d="M1054,-84.81C1054,-84.81 1054,-114.65 1054,-114.65"/>
<polygon fill="black" stroke="black" points="1050.5,-114.65 1054,-124.65 1057.5,-114.65 1050.5,-114.65"/>
</g>
<!-- EmailConfirmationsService -->
<g id="node15" class="node">
<title>EmailConfirmationsService</title>
<ellipse fill="#fdb462" stroke="black" cx="581" cy="-142.8" rx="118.69" ry="18"/>
<text text-anchor="middle" x="581" y="-138.6" font-family="Times,serif" font-size="14.00">EmailConfirmationsService</text>
</g>
<!-- EmailConfirmationsService&#45;&gt;EmailConfirmationsModule -->
<g id="edge18" class="edge">
<title>EmailConfirmationsService&#45;&gt;EmailConfirmationsModule</title>
<path fill="none" stroke="black" d="M581,-160.93C581,-171.51 581,-182.8 581,-182.8 581,-182.8 989.18,-182.8 989.18,-182.8 989.18,-182.8 989.18,-190.38 989.18,-190.38"/>
<polygon fill="black" stroke="black" points="985.68,-190.38 989.18,-200.38 992.68,-190.38 985.68,-190.38"/>
</g>
<!-- EmailsService -->
<g id="node17" class="node">
<title>EmailsService</title>
<ellipse fill="#fdb462" stroke="black" cx="1681" cy="-218.8" rx="66.63" ry="18"/>
<text text-anchor="middle" x="1681" y="-214.6" font-family="Times,serif" font-size="14.00">EmailsService</text>
</g>
<!-- EmailsService&#45;&gt;EmailsModule -->
<g id="edge20" class="edge">
<title>EmailsService&#45;&gt;EmailsModule</title>
<path fill="none" stroke="black" d="M1682.1,-200.67C1682.1,-190.49 1682.1,-179.8 1682.1,-179.8 1682.1,-179.8 954.83,-179.8 954.83,-179.8 954.83,-179.8 954.83,-170.87 954.83,-170.87"/>
<polygon fill="black" stroke="black" points="958.33,-170.87 954.83,-160.87 951.33,-170.87 958.33,-170.87"/>
</g>
<!-- HealthService -->
<g id="node18" class="node">
<title>HealthService</title>
<ellipse fill="#fdb462" stroke="black" cx="1390" cy="-66.8" rx="65.97" ry="18"/>
<text text-anchor="middle" x="1390" y="-62.6" font-family="Times,serif" font-size="14.00">HealthService</text>
</g>
<!-- HealthService&#45;&gt;HealthModule -->
<g id="edge21" class="edge">
<title>HealthService&#45;&gt;HealthModule</title>
<path fill="none" stroke="black" d="M1412.65,-84.05C1412.65,-84.05 1412.65,-114.56 1412.65,-114.56"/>
<polygon fill="black" stroke="black" points="1409.15,-114.56 1412.65,-124.56 1416.15,-114.56 1409.15,-114.56"/>
</g>
<!-- PostsService -->
<g id="node19" class="node">
<title>PostsService</title>
<ellipse fill="#fdb462" stroke="black" cx="1556" cy="-66.8" rx="60.27" ry="18"/>
<text text-anchor="middle" x="1556" y="-62.6" font-family="Times,serif" font-size="14.00">PostsService</text>
</g>
<!-- PostsService&#45;&gt;PostsModule -->
<g id="edge22" class="edge">
<title>PostsService&#45;&gt;PostsModule</title>
<path fill="none" stroke="black" d="M1534.59,-83.67C1534.59,-83.67 1534.59,-114.65 1534.59,-114.65"/>
<polygon fill="black" stroke="black" points="1531.09,-114.65 1534.59,-124.65 1538.09,-114.65 1531.09,-114.65"/>
</g>
<!-- UsersService -->
<g id="node21" class="node">
<title>UsersService</title>
<ellipse fill="#fdb462" stroke="black" cx="1974" cy="-218.8" rx="61.95" ry="18"/>
<text text-anchor="middle" x="1974" y="-214.6" font-family="Times,serif" font-size="14.00">UsersService</text>
</g>
<!-- UsersService&#45;&gt;UsersModule -->
<g id="edge24" class="edge">
<title>UsersService&#45;&gt;UsersModule</title>
<path fill="none" stroke="black" d="M1974,-200.75C1974,-186.43 1974,-168.8 1974,-168.8 1974,-168.8 1306,-168.8 1306,-168.8 1306,-168.8 1306,-168.01 1306,-168.01"/>
<polygon fill="black" stroke="black" points="1309.5,-170.86 1306,-160.86 1302.5,-170.86 1309.5,-170.86"/>
</g>
</g>
</svg>
